<?xml version="1.0" encoding="UTF-8"?>
<svg xmlns="http://www.w3.org/2000/svg"
    xmlns:latexdraw="http://latexdraw.sourceforge.net/namespaces/latexdraw"
    version="1.1" baseProfile="full">
    <g>
        <g latexdraw:type="joinedLines" id="id14">
            <polyline
                points="260.0,155.0 260.0,275.0 380.0,275.0 380.0,155.0 260.0,155.0 "
                stroke-width="2.0" stroke="black" fill="none" latexdraw:rotationAngle="0.0"/>
        </g>
        <g latexdraw:type="joinedLines" id="id15">
            <polyline points="300.0,155.0 300.0,275.0 "
                stroke-width="2.0" stroke="black" latexdraw:rotationAngle="0.0"/>
        </g>
        <g latexdraw:type="joinedLines" id="id16">
            <polyline points="340.0,155.0 340.0,275.0 "
                stroke-width="2.0" stroke="black" latexdraw:rotationAngle="0.0"/>
        </g>
        <g latexdraw:type="joinedLines" id="id17">
            <polyline points="260.0,195.0 380.0,195.0 "
                stroke-width="2.0" stroke="black" latexdraw:rotationAngle="0.0"/>
        </g>
        <g latexdraw:type="joinedLines" id="id18">
            <polyline points="260.0,235.0 380.0,235.0 "
                stroke-width="2.0" stroke="black" latexdraw:rotationAngle="0.0"/>
        </g>
        <g latexdraw:type="joinedLines" id="id19">
            <polyline
                points="260.0,280.0 260.0,360.0 300.0,360.0 300.0,280.0 260.0,280.0 "
                stroke-width="2.0" stroke="black" fill="none" latexdraw:rotationAngle="0.0"/>
        </g>
        <g latexdraw:type="joinedLines" id="id20">
            <polyline
                points="300.0,280.0 340.0,280.0 340.0,360.0 300.0,360.0 "
                stroke-width="2.0" stroke="black" fill="none" latexdraw:rotationAngle="0.0"/>
        </g>
        <g latexdraw:type="joinedLines" id="id21">
            <polyline
                points="340.0,280.0 380.0,280.0 380.0,360.0 340.0,360.0 "
                stroke-width="2.0" stroke="black" fill="none" latexdraw:rotationAngle="0.0"/>
        </g>
        <g latexdraw:type="joinedLines" id="id26">
            <polyline
                points="380.0,380.0 320.0,380.0 320.0,440.0 380.0,440.0 380.0,380.0 380.0,380.0 "
                stroke-width="2.0" stroke="black" fill="none" latexdraw:rotationAngle="0.0"/>
        </g>
        <g latexdraw:type="joinedLines" id="id30">
            <polyline
                points="260.0,410.0 300.0,380.0 300.0,440.0 260.0,410.0 "
                stroke-width="2.0" stroke="black" fill="none" latexdraw:rotationAngle="0.0"/>
        </g>
        <g latexdraw:type="joinedLines" id="id31">
            <polyline points="300.0,410.0 320.0,410.0 "
                stroke-width="2.0" stroke="black" latexdraw:rotationAngle="0.0"/>
        </g>
        <g latexdraw:type="joinedLines" id="id32">
            <polyline
                points="380.0,410.0 410.0,410.0 410.0,320.0 380.0,320.0 "
                stroke-width="2.0" stroke="black" fill="none" latexdraw:rotationAngle="0.0"/>
        </g>
        <g latexdraw:type="rectangle" id="id35">
            <rect x="261.0" y="451.0" width="78.0" height="108.0"
                transform="translate(5.29 0.0) translate(-9.030594872476833 -3.7405948724768336)"
                stroke-width="2.0" fill="#999999" stroke="#999999" latexdraw:type="shadow"/>
            <rect x="261.0" y="451.0" width="78.0" height="108.0"
                latexdraw:type="background" fill="white" stroke="white" stroke-width="10.0"/>
            <rect x="261.0" y="451.0" width="78.0" height="108.0"
                latexdraw:borderPos="outer" stroke-width="2.0"
                stroke="black" fill="white"/>
        </g>
        <g latexdraw:type="joinedLines" id="id33">
            <polyline
                points="260.0,410.0 230.0,410.0 230.0,470.0 260.0,470.0 "
                stroke-width="2.0" stroke="black" fill="none" latexdraw:rotationAngle="0.0"/>
        </g>
        <g latexdraw:type="dot" id="id164" latexdraw:size="5.0"
            latexdraw:dotShape="*" latexdraw:position="270.0 205.0">
            <path
                d="M 272.3076923076923 205.0 C 272.3076923076923 206.27450326884028 271.2745032688403 207.3076923076923 270.0 207.3076923076923 C 268.7254967311597 207.3076923076923 267.6923076923077 206.27450326884028 267.6923076923077 205.0 C 267.6923076923077 203.7254967311597 268.7254967311597 202.69230769230768 270.0 202.69230769230768 C 271.2745032688403 202.69230769230768 272.3076923076923 203.7254967311597 272.3076923076923 205.0 z "
                fill="black" stroke-linecap="square"
                stroke-linejoin="butt" stroke-width="0.3125"
                stroke-miterlimit="10.0" stroke-dashoffset="0.0" stroke="black"/>
        </g>
        <g latexdraw:type="dot" id="id165" latexdraw:size="5.0"
            latexdraw:dotShape="*" latexdraw:position="290.0 225.0">
            <path
                d="M 292.3076923076923 225.0 C 292.3076923076923 226.27450326884028 291.2745032688403 227.3076923076923 290.0 227.3076923076923 C 288.7254967311597 227.3076923076923 287.6923076923077 226.27450326884028 287.6923076923077 225.0 C 287.6923076923077 223.7254967311597 288.7254967311597 222.69230769230768 290.0 222.69230769230768 C 291.2745032688403 222.69230769230768 292.3076923076923 223.7254967311597 292.3076923076923 225.0 z "
                fill="black" stroke-linecap="square"
                stroke-linejoin="butt" stroke-width="0.3125"
                stroke-miterlimit="10.0" stroke-dashoffset="0.0" stroke="black"/>
        </g>
        <g latexdraw:type="dot" id="id166" latexdraw:size="5.0"
            latexdraw:dotShape="*" latexdraw:position="350.0 205.0">
            <path
                d="M 352.3076923076923 205.0 C 352.3076923076923 206.27450326884028 351.2745032688403 207.3076923076923 350.0 207.3076923076923 C 348.7254967311597 207.3076923076923 347.6923076923077 206.27450326884028 347.6923076923077 205.0 C 347.6923076923077 203.7254967311597 348.7254967311597 202.69230769230768 350.0 202.69230769230768 C 351.2745032688403 202.69230769230768 352.3076923076923 203.7254967311597 352.3076923076923 205.0 z "
                fill="black" stroke-linecap="square"
                stroke-linejoin="butt" stroke-width="0.3125"
                stroke-miterlimit="10.0" stroke-dashoffset="0.0" stroke="black"/>
        </g>
        <g latexdraw:type="dot" id="id167" latexdraw:size="5.0"
            latexdraw:dotShape="*" latexdraw:position="360.0 205.0">
            <path
                d="M 362.3076923076923 205.0 C 362.3076923076923 206.27450326884028 361.2745032688403 207.3076923076923 360.0 207.3076923076923 C 358.7254967311597 207.3076923076923 357.6923076923077 206.27450326884028 357.6923076923077 205.0 C 357.6923076923077 203.7254967311597 358.7254967311597 202.69230769230768 360.0 202.69230769230768 C 361.2745032688403 202.69230769230768 362.3076923076923 203.7254967311597 362.3076923076923 205.0 z "
                fill="black" stroke-linecap="square"
                stroke-linejoin="butt" stroke-width="0.3125"
                stroke-miterlimit="10.0" stroke-dashoffset="0.0" stroke="black"/>
        </g>
        <g latexdraw:type="dot" id="id168" latexdraw:size="5.0"
            latexdraw:dotShape="*" latexdraw:position="370.0 205.0">
            <path
                d="M 372.3076923076923 205.0 C 372.3076923076923 206.27450326884028 371.2745032688403 207.3076923076923 370.0 207.3076923076923 C 368.7254967311597 207.3076923076923 367.6923076923077 206.27450326884028 367.6923076923077 205.0 C 367.6923076923077 203.7254967311597 368.7254967311597 202.69230769230768 370.0 202.69230769230768 C 371.2745032688403 202.69230769230768 372.3076923076923 203.7254967311597 372.3076923076923 205.0 z "
                fill="black" stroke-linecap="square"
                stroke-linejoin="butt" stroke-width="0.3125"
                stroke-miterlimit="10.0" stroke-dashoffset="0.0" stroke="black"/>
        </g>
        <g latexdraw:type="dot" id="id169" latexdraw:size="5.0"
            latexdraw:dotShape="*" latexdraw:position="350.0 225.0">
            <path
                d="M 352.3076923076923 225.0 C 352.3076923076923 226.27450326884028 351.2745032688403 227.3076923076923 350.0 227.3076923076923 C 348.7254967311597 227.3076923076923 347.6923076923077 226.27450326884028 347.6923076923077 225.0 C 347.6923076923077 223.7254967311597 348.7254967311597 222.69230769230768 350.0 222.69230769230768 C 351.2745032688403 222.69230769230768 352.3076923076923 223.7254967311597 352.3076923076923 225.0 z "
                fill="black" stroke-linecap="square"
                stroke-linejoin="butt" stroke-width="0.3125"
                stroke-miterlimit="10.0" stroke-dashoffset="0.0" stroke="black"/>
        </g>
        <g latexdraw:type="dot" id="id170" latexdraw:size="5.0"
            latexdraw:dotShape="*" latexdraw:position="360.0 225.0">
            <path
                d="M 362.3076923076923 225.0 C 362.3076923076923 226.27450326884028 361.2745032688403 227.3076923076923 360.0 227.3076923076923 C 358.7254967311597 227.3076923076923 357.6923076923077 226.27450326884028 357.6923076923077 225.0 C 357.6923076923077 223.7254967311597 358.7254967311597 222.69230769230768 360.0 222.69230769230768 C 361.2745032688403 222.69230769230768 362.3076923076923 223.7254967311597 362.3076923076923 225.0 z "
                fill="black" stroke-linecap="square"
                stroke-linejoin="butt" stroke-width="0.3125"
                stroke-miterlimit="10.0" stroke-dashoffset="0.0" stroke="black"/>
        </g>
        <g latexdraw:type="dot" id="id171" latexdraw:size="5.0"
            latexdraw:dotShape="*" latexdraw:position="370.0 225.0">
            <path
                d="M 372.3076923076923 225.0 C 372.3076923076923 226.27450326884028 371.2745032688403 227.3076923076923 370.0 227.3076923076923 C 368.7254967311597 227.3076923076923 367.6923076923077 226.27450326884028 367.6923076923077 225.0 C 367.6923076923077 223.7254967311597 368.7254967311597 222.69230769230768 370.0 222.69230769230768 C 371.2745032688403 222.69230769230768 372.3076923076923 223.7254967311597 372.3076923076923 225.0 z "
                fill="black" stroke-linecap="square"
                stroke-linejoin="butt" stroke-width="0.3125"
                stroke-miterlimit="10.0" stroke-dashoffset="0.0" stroke="black"/>
        </g>
        <g latexdraw:type="dot" id="id172" latexdraw:size="5.0"
            latexdraw:dotShape="*" latexdraw:position="310.0 205.0">
            <path
                d="M 312.3076923076923 205.0 C 312.3076923076923 206.27450326884028 311.2745032688403 207.3076923076923 310.0 207.3076923076923 C 308.7254967311597 207.3076923076923 307.6923076923077 206.27450326884028 307.6923076923077 205.0 C 307.6923076923077 203.7254967311597 308.7254967311597 202.69230769230768 310.0 202.69230769230768 C 311.2745032688403 202.69230769230768 312.3076923076923 203.7254967311597 312.3076923076923 205.0 z "
                fill="black" stroke-linecap="square"
                stroke-linejoin="butt" stroke-width="0.3125"
                stroke-miterlimit="10.0" stroke-dashoffset="0.0" stroke="black"/>
        </g>
        <g latexdraw:type="dot" id="id173" latexdraw:size="5.0"
            latexdraw:dotShape="*" latexdraw:position="320.0 215.0">
            <path
                d="M 322.3076923076923 215.0 C 322.3076923076923 216.27450326884028 321.2745032688403 217.3076923076923 320.0 217.3076923076923 C 318.7254967311597 217.3076923076923 317.6923076923077 216.27450326884028 317.6923076923077 215.0 C 317.6923076923077 213.7254967311597 318.7254967311597 212.69230769230768 320.0 212.69230769230768 C 321.2745032688403 212.69230769230768 322.3076923076923 213.7254967311597 322.3076923076923 215.0 z "
                fill="black" stroke-linecap="square"
                stroke-linejoin="butt" stroke-width="0.3125"
                stroke-miterlimit="10.0" stroke-dashoffset="0.0" stroke="black"/>
        </g>
        <g latexdraw:type="dot" id="id174" latexdraw:size="5.0"
            latexdraw:dotShape="*" latexdraw:position="330.0 225.0">
            <path
                d="M 332.3076923076923 225.0 C 332.3076923076923 226.27450326884028 331.2745032688403 227.3076923076923 330.0 227.3076923076923 C 328.7254967311597 227.3076923076923 327.6923076923077 226.27450326884028 327.6923076923077 225.0 C 327.6923076923077 223.7254967311597 328.7254967311597 222.69230769230768 330.0 222.69230769230768 C 331.2745032688403 222.69230769230768 332.3076923076923 223.7254967311597 332.3076923076923 225.0 z "
                fill="black" stroke-linecap="square"
                stroke-linejoin="butt" stroke-width="0.3125"
                stroke-miterlimit="10.0" stroke-dashoffset="0.0" stroke="black"/>
        </g>
        <g latexdraw:type="dot" id="id175" latexdraw:size="5.0"
            latexdraw:dotShape="*" latexdraw:position="280.0 255.0">
            <path
                d="M 282.3076923076923 255.0 C 282.3076923076923 256.2745032688403 281.2745032688403 257.3076923076923 280.0 257.3076923076923 C 278.7254967311597 257.3076923076923 277.6923076923077 256.2745032688403 277.6923076923077 255.0 C 277.6923076923077 253.7254967311597 278.7254967311597 252.69230769230768 280.0 252.69230769230768 C 281.2745032688403 252.69230769230768 282.3076923076923 253.7254967311597 282.3076923076923 255.0 z "
                fill="black" stroke-linecap="square"
                stroke-linejoin="butt" stroke-width="0.3125"
                stroke-miterlimit="10.0" stroke-dashoffset="0.0" stroke="black"/>
        </g>
        <g latexdraw:type="dot" id="id184" latexdraw:size="5.0"
            latexdraw:dotShape="*" latexdraw:position="350.0 245.0">
            <path
                d="M 352.3076923076923 245.0 C 352.3076923076923 246.27450326884028 351.2745032688403 247.3076923076923 350.0 247.3076923076923 C 348.7254967311597 247.3076923076923 347.6923076923077 246.27450326884028 347.6923076923077 245.0 C 347.6923076923077 243.7254967311597 348.7254967311597 242.69230769230768 350.0 242.69230769230768 C 351.2745032688403 242.69230769230768 352.3076923076923 243.7254967311597 352.3076923076923 245.0 z "
                fill="black" stroke-linecap="square"
                stroke-linejoin="butt" stroke-width="0.3125"
                stroke-miterlimit="10.0" stroke-dashoffset="0.0" stroke="black"/>
        </g>
        <g latexdraw:type="dot" id="id185" latexdraw:size="5.0"
            latexdraw:dotShape="*" latexdraw:position="350.0 265.0">
            <path
                d="M 352.3076923076923 265.0 C 352.3076923076923 266.2745032688403 351.2745032688403 267.3076923076923 350.0 267.3076923076923 C 348.7254967311597 267.3076923076923 347.6923076923077 266.2745032688403 347.6923076923077 265.0 C 347.6923076923077 263.7254967311597 348.7254967311597 262.6923076923077 350.0 262.6923076923077 C 351.2745032688403 262.6923076923077 352.3076923076923 263.7254967311597 352.3076923076923 265.0 z "
                fill="black" stroke-linecap="square"
                stroke-linejoin="butt" stroke-width="0.3125"
                stroke-miterlimit="10.0" stroke-dashoffset="0.0" stroke="black"/>
        </g>
        <g latexdraw:type="dot" id="id186" latexdraw:size="5.0"
            latexdraw:dotShape="*" latexdraw:position="370.0 265.0">
            <path
                d="M 372.3076923076923 265.0 C 372.3076923076923 266.2745032688403 371.2745032688403 267.3076923076923 370.0 267.3076923076923 C 368.7254967311597 267.3076923076923 367.6923076923077 266.2745032688403 367.6923076923077 265.0 C 367.6923076923077 263.7254967311597 368.7254967311597 262.6923076923077 370.0 262.6923076923077 C 371.2745032688403 262.6923076923077 372.3076923076923 263.7254967311597 372.3076923076923 265.0 z "
                fill="black" stroke-linecap="square"
                stroke-linejoin="butt" stroke-width="0.3125"
                stroke-miterlimit="10.0" stroke-dashoffset="0.0" stroke="black"/>
        </g>
        <g latexdraw:type="dot" id="id187" latexdraw:size="5.0"
            latexdraw:dotShape="*" latexdraw:position="370.0 245.0">
            <path
                d="M 372.3076923076923 245.0 C 372.3076923076923 246.27450326884028 371.2745032688403 247.3076923076923 370.0 247.3076923076923 C 368.7254967311597 247.3076923076923 367.6923076923077 246.27450326884028 367.6923076923077 245.0 C 367.6923076923077 243.7254967311597 368.7254967311597 242.69230769230768 370.0 242.69230769230768 C 371.2745032688403 242.69230769230768 372.3076923076923 243.7254967311597 372.3076923076923 245.0 z "
                fill="black" stroke-linecap="square"
                stroke-linejoin="butt" stroke-width="0.3125"
                stroke-miterlimit="10.0" stroke-dashoffset="0.0" stroke="black"/>
        </g>
        <g latexdraw:type="dot" id="id188" latexdraw:size="5.0"
            latexdraw:dotShape="*" latexdraw:position="270.0 310.0">
            <path
                d="M 272.3076923076923 310.0 C 272.3076923076923 311.2745032688403 271.2745032688403 312.3076923076923 270.0 312.3076923076923 C 268.7254967311597 312.3076923076923 267.6923076923077 311.2745032688403 267.6923076923077 310.0 C 267.6923076923077 308.7254967311597 268.7254967311597 307.6923076923077 270.0 307.6923076923077 C 271.2745032688403 307.6923076923077 272.3076923076923 308.7254967311597 272.3076923076923 310.0 z "
                fill="black" stroke-linecap="square"
                stroke-linejoin="butt" stroke-width="0.3125"
                stroke-miterlimit="10.0" stroke-dashoffset="0.0" stroke="black"/>
        </g>
        <g latexdraw:type="dot" id="id189" latexdraw:size="5.0"
            latexdraw:dotShape="*" latexdraw:position="270.0 330.0">
            <path
                d="M 272.3076923076923 330.0 C 272.3076923076923 331.2745032688403 271.2745032688403 332.3076923076923 270.0 332.3076923076923 C 268.7254967311597 332.3076923076923 267.6923076923077 331.2745032688403 267.6923076923077 330.0 C 267.6923076923077 328.7254967311597 268.7254967311597 327.6923076923077 270.0 327.6923076923077 C 271.2745032688403 327.6923076923077 272.3076923076923 328.7254967311597 272.3076923076923 330.0 z "
                fill="black" stroke-linecap="square"
                stroke-linejoin="butt" stroke-width="0.3125"
                stroke-miterlimit="10.0" stroke-dashoffset="0.0" stroke="black"/>
        </g>
        <g latexdraw:type="dot" id="id190" latexdraw:size="5.0"
            latexdraw:dotShape="*" latexdraw:position="290.0 330.0">
            <path
                d="M 292.3076923076923 330.0 C 292.3076923076923 331.2745032688403 291.2745032688403 332.3076923076923 290.0 332.3076923076923 C 288.7254967311597 332.3076923076923 287.6923076923077 331.2745032688403 287.6923076923077 330.0 C 287.6923076923077 328.7254967311597 288.7254967311597 327.6923076923077 290.0 327.6923076923077 C 291.2745032688403 327.6923076923077 292.3076923076923 328.7254967311597 292.3076923076923 330.0 z "
                fill="black" stroke-linecap="square"
                stroke-linejoin="butt" stroke-width="0.3125"
                stroke-miterlimit="10.0" stroke-dashoffset="0.0" stroke="black"/>
        </g>
        <g latexdraw:type="dot" id="id191" latexdraw:size="5.0"
            latexdraw:dotShape="*" latexdraw:position="290.0 310.0">
            <path
                d="M 292.3076923076923 310.0 C 292.3076923076923 311.2745032688403 291.2745032688403 312.3076923076923 290.0 312.3076923076923 C 288.7254967311597 312.3076923076923 287.6923076923077 311.2745032688403 287.6923076923077 310.0 C 287.6923076923077 308.7254967311597 288.7254967311597 307.6923076923077 290.0 307.6923076923077 C 291.2745032688403 307.6923076923077 292.3076923076923 308.7254967311597 292.3076923076923 310.0 z "
                fill="black" stroke-linecap="square"
                stroke-linejoin="butt" stroke-width="0.3125"
                stroke-miterlimit="10.0" stroke-dashoffset="0.0" stroke="black"/>
        </g>
        <g latexdraw:type="dot" id="id192" latexdraw:size="5.0"
            latexdraw:dotShape="*" latexdraw:position="280.0 320.0">
            <path
                d="M 282.3076923076923 320.0 C 282.3076923076923 321.2745032688403 281.2745032688403 322.3076923076923 280.0 322.3076923076923 C 278.7254967311597 322.3076923076923 277.6923076923077 321.2745032688403 277.6923076923077 320.0 C 277.6923076923077 318.7254967311597 278.7254967311597 317.6923076923077 280.0 317.6923076923077 C 281.2745032688403 317.6923076923077 282.3076923076923 318.7254967311597 282.3076923076923 320.0 z "
                fill="black" stroke-linecap="square"
                stroke-linejoin="butt" stroke-width="0.3125"
                stroke-miterlimit="10.0" stroke-dashoffset="0.0" stroke="black"/>
        </g>
        <g latexdraw:type="dot" id="id244" latexdraw:size="5.0"
            latexdraw:dotShape="*" latexdraw:position="310.0 240.0">
            <path
                d="M 312.3076923076923 240.0 C 312.3076923076923 241.27450326884028 311.2745032688403 242.3076923076923 310.0 242.3076923076923 C 308.7254967311597 242.3076923076923 307.6923076923077 241.27450326884028 307.6923076923077 240.0 C 307.6923076923077 238.7254967311597 308.7254967311597 237.69230769230768 310.0 237.69230769230768 C 311.2745032688403 237.69230769230768 312.3076923076923 238.7254967311597 312.3076923076923 240.0 z "
                fill="black" stroke-linecap="square"
                stroke-linejoin="butt" stroke-width="0.3125"
                stroke-miterlimit="10.0" stroke-dashoffset="0.0" stroke="black"/>
        </g>
        <g latexdraw:type="dot" id="id245" latexdraw:size="5.0"
            latexdraw:dotShape="*" latexdraw:position="320.0 240.0">
            <path
                d="M 322.3076923076923 240.0 C 322.3076923076923 241.27450326884028 321.2745032688403 242.3076923076923 320.0 242.3076923076923 C 318.7254967311597 242.3076923076923 317.6923076923077 241.27450326884028 317.6923076923077 240.0 C 317.6923076923077 238.7254967311597 318.7254967311597 237.69230769230768 320.0 237.69230769230768 C 321.2745032688403 237.69230769230768 322.3076923076923 238.7254967311597 322.3076923076923 240.0 z "
                fill="black" stroke-linecap="square"
                stroke-linejoin="butt" stroke-width="0.3125"
                stroke-miterlimit="10.0" stroke-dashoffset="0.0" stroke="black"/>
        </g>
        <g latexdraw:type="dot" id="id246" latexdraw:size="5.0"
            latexdraw:dotShape="*" latexdraw:position="330.0 240.0">
            <path
                d="M 332.3076923076923 240.0 C 332.3076923076923 241.27450326884028 331.2745032688403 242.3076923076923 330.0 242.3076923076923 C 328.7254967311597 242.3076923076923 327.6923076923077 241.27450326884028 327.6923076923077 240.0 C 327.6923076923077 238.7254967311597 328.7254967311597 237.69230769230768 330.0 237.69230769230768 C 331.2745032688403 237.69230769230768 332.3076923076923 238.7254967311597 332.3076923076923 240.0 z "
                fill="black" stroke-linecap="square"
                stroke-linejoin="butt" stroke-width="0.3125"
                stroke-miterlimit="10.0" stroke-dashoffset="0.0" stroke="black"/>
        </g>
        <g latexdraw:type="dot" id="id257" latexdraw:size="5.0"
            latexdraw:dotShape="*" latexdraw:position="305.0 250.0">
            <path
                d="M 307.3076923076923 250.0 C 307.3076923076923 251.27450326884028 306.2745032688403 252.3076923076923 305.0 252.3076923076923 C 303.7254967311597 252.3076923076923 302.6923076923077 251.27450326884028 302.6923076923077 250.0 C 302.6923076923077 248.7254967311597 303.7254967311597 247.69230769230768 305.0 247.69230769230768 C 306.2745032688403 247.69230769230768 307.3076923076923 248.7254967311597 307.3076923076923 250.0 z "
                fill="black" stroke-linecap="square"
                stroke-linejoin="butt" stroke-width="0.3125"
                stroke-miterlimit="10.0" stroke-dashoffset="0.0" stroke="black"/>
        </g>
        <g latexdraw:type="dot" id="id258" latexdraw:size="5.0"
            latexdraw:dotShape="*" latexdraw:position="315.0 250.0">
            <path
                d="M 317.3076923076923 250.0 C 317.3076923076923 251.27450326884028 316.2745032688403 252.3076923076923 315.0 252.3076923076923 C 313.7254967311597 252.3076923076923 312.6923076923077 251.27450326884028 312.6923076923077 250.0 C 312.6923076923077 248.7254967311597 313.7254967311597 247.69230769230768 315.0 247.69230769230768 C 316.2745032688403 247.69230769230768 317.3076923076923 248.7254967311597 317.3076923076923 250.0 z "
                fill="black" stroke-linecap="square"
                stroke-linejoin="butt" stroke-width="0.3125"
                stroke-miterlimit="10.0" stroke-dashoffset="0.0" stroke="black"/>
        </g>
        <g latexdraw:type="dot" id="id259" latexdraw:size="5.0"
            latexdraw:dotShape="*" latexdraw:position="325.0 250.0">
            <path
                d="M 327.3076923076923 250.0 C 327.3076923076923 251.27450326884028 326.2745032688403 252.3076923076923 325.0 252.3076923076923 C 323.7254967311597 252.3076923076923 322.6923076923077 251.27450326884028 322.6923076923077 250.0 C 322.6923076923077 248.7254967311597 323.7254967311597 247.69230769230768 325.0 247.69230769230768 C 326.2745032688403 247.69230769230768 327.3076923076923 248.7254967311597 327.3076923076923 250.0 z "
                fill="black" stroke-linecap="square"
                stroke-linejoin="butt" stroke-width="0.3125"
                stroke-miterlimit="10.0" stroke-dashoffset="0.0" stroke="black"/>
        </g>
        <g latexdraw:type="dot" id="id260" latexdraw:size="5.0"
            latexdraw:dotShape="*" latexdraw:position="335.0 250.0">
            <path
                d="M 337.3076923076923 250.0 C 337.3076923076923 251.27450326884028 336.2745032688403 252.3076923076923 335.0 252.3076923076923 C 333.7254967311597 252.3076923076923 332.6923076923077 251.27450326884028 332.6923076923077 250.0 C 332.6923076923077 248.7254967311597 333.7254967311597 247.69230769230768 335.0 247.69230769230768 C 336.2745032688403 247.69230769230768 337.3076923076923 248.7254967311597 337.3076923076923 250.0 z "
                fill="black" stroke-linecap="square"
                stroke-linejoin="butt" stroke-width="0.3125"
                stroke-miterlimit="10.0" stroke-dashoffset="0.0" stroke="black"/>
        </g>
        <g latexdraw:type="dot" id="id261" latexdraw:size="5.0"
            latexdraw:dotShape="*" latexdraw:position="305.0 260.0">
            <path
                d="M 307.3076923076923 260.0 C 307.3076923076923 261.2745032688403 306.2745032688403 262.3076923076923 305.0 262.3076923076923 C 303.7254967311597 262.3076923076923 302.6923076923077 261.2745032688403 302.6923076923077 260.0 C 302.6923076923077 258.7254967311597 303.7254967311597 257.6923076923077 305.0 257.6923076923077 C 306.2745032688403 257.6923076923077 307.3076923076923 258.7254967311597 307.3076923076923 260.0 z "
                fill="black" stroke-linecap="square"
                stroke-linejoin="butt" stroke-width="0.3125"
                stroke-miterlimit="10.0" stroke-dashoffset="0.0" stroke="black"/>
        </g>
        <g latexdraw:type="dot" id="id264" latexdraw:size="5.0"
            latexdraw:dotShape="*" latexdraw:position="315.0 260.0">
            <path
                d="M 317.3076923076923 260.0 C 317.3076923076923 261.2745032688403 316.2745032688403 262.3076923076923 315.0 262.3076923076923 C 313.7254967311597 262.3076923076923 312.6923076923077 261.2745032688403 312.6923076923077 260.0 C 312.6923076923077 258.7254967311597 313.7254967311597 257.6923076923077 315.0 257.6923076923077 C 316.2745032688403 257.6923076923077 317.3076923076923 258.7254967311597 317.3076923076923 260.0 z "
                fill="black" stroke-linecap="square"
                stroke-linejoin="butt" stroke-width="0.3125"
                stroke-miterlimit="10.0" stroke-dashoffset="0.0" stroke="black"/>
        </g>
        <g latexdraw:type="dot" id="id265" latexdraw:size="5.0"
            latexdraw:dotShape="*" latexdraw:position="325.0 260.0">
            <path
                d="M 327.3076923076923 260.0 C 327.3076923076923 261.2745032688403 326.2745032688403 262.3076923076923 325.0 262.3076923076923 C 323.7254967311597 262.3076923076923 322.6923076923077 261.2745032688403 322.6923076923077 260.0 C 322.6923076923077 258.7254967311597 323.7254967311597 257.6923076923077 325.0 257.6923076923077 C 326.2745032688403 257.6923076923077 327.3076923076923 258.7254967311597 327.3076923076923 260.0 z "
                fill="black" stroke-linecap="square"
                stroke-linejoin="butt" stroke-width="0.3125"
                stroke-miterlimit="10.0" stroke-dashoffset="0.0" stroke="black"/>
        </g>
        <g latexdraw:type="dot" id="id266" latexdraw:size="5.0"
            latexdraw:dotShape="*" latexdraw:position="335.0 260.0">
            <path
                d="M 337.3076923076923 260.0 C 337.3076923076923 261.2745032688403 336.2745032688403 262.3076923076923 335.0 262.3076923076923 C 333.7254967311597 262.3076923076923 332.6923076923077 261.2745032688403 332.6923076923077 260.0 C 332.6923076923077 258.7254967311597 333.7254967311597 257.6923076923077 335.0 257.6923076923077 C 336.2745032688403 257.6923076923077 337.3076923076923 258.7254967311597 337.3076923076923 260.0 z "
                fill="black" stroke-linecap="square"
                stroke-linejoin="butt" stroke-width="0.3125"
                stroke-miterlimit="10.0" stroke-dashoffset="0.0" stroke="black"/>
        </g>
        <g latexdraw:type="dot" id="id268" latexdraw:size="5.0"
            latexdraw:dotShape="*" latexdraw:position="310.0 270.0">
            <path
                d="M 312.3076923076923 270.0 C 312.3076923076923 271.2745032688403 311.2745032688403 272.3076923076923 310.0 272.3076923076923 C 308.7254967311597 272.3076923076923 307.6923076923077 271.2745032688403 307.6923076923077 270.0 C 307.6923076923077 268.7254967311597 308.7254967311597 267.6923076923077 310.0 267.6923076923077 C 311.2745032688403 267.6923076923077 312.3076923076923 268.7254967311597 312.3076923076923 270.0 z "
                fill="black" stroke-linecap="square"
                stroke-linejoin="butt" stroke-width="0.3125"
                stroke-miterlimit="10.0" stroke-dashoffset="0.0" stroke="black"/>
        </g>
        <g latexdraw:type="dot" id="id269" latexdraw:size="5.0"
            latexdraw:dotShape="*" latexdraw:position="320.0 270.0">
            <path
                d="M 322.3076923076923 270.0 C 322.3076923076923 271.2745032688403 321.2745032688403 272.3076923076923 320.0 272.3076923076923 C 318.7254967311597 272.3076923076923 317.6923076923077 271.2745032688403 317.6923076923077 270.0 C 317.6923076923077 268.7254967311597 318.7254967311597 267.6923076923077 320.0 267.6923076923077 C 321.2745032688403 267.6923076923077 322.3076923076923 268.7254967311597 322.3076923076923 270.0 z "
                fill="black" stroke-linecap="square"
                stroke-linejoin="butt" stroke-width="0.3125"
                stroke-miterlimit="10.0" stroke-dashoffset="0.0" stroke="black"/>
        </g>
        <g latexdraw:type="dot" id="id270" latexdraw:size="5.0"
            latexdraw:dotShape="*" latexdraw:position="330.0 270.0">
            <path
                d="M 332.3076923076923 270.0 C 332.3076923076923 271.2745032688403 331.2745032688403 272.3076923076923 330.0 272.3076923076923 C 328.7254967311597 272.3076923076923 327.6923076923077 271.2745032688403 327.6923076923077 270.0 C 327.6923076923077 268.7254967311597 328.7254967311597 267.6923076923077 330.0 267.6923076923077 C 331.2745032688403 267.6923076923077 332.3076923076923 268.7254967311597 332.3076923076923 270.0 z "
                fill="black" stroke-linecap="square"
                stroke-linejoin="butt" stroke-width="0.3125"
                stroke-miterlimit="10.0" stroke-dashoffset="0.0" stroke="black"/>
        </g>
        <g latexdraw:type="dot" id="id387" latexdraw:size="5.0"
            latexdraw:dotShape="*" latexdraw:position="355.0 215.0">
            <path
                d="M 357.3076923076923 215.0 C 357.3076923076923 216.27450326884028 356.2745032688403 217.3076923076923 355.0 217.3076923076923 C 353.7254967311597 217.3076923076923 352.6923076923077 216.27450326884028 352.6923076923077 215.0 C 352.6923076923077 213.7254967311597 353.7254967311597 212.69230769230768 355.0 212.69230769230768 C 356.2745032688403 212.69230769230768 357.3076923076923 213.7254967311597 357.3076923076923 215.0 z "
                fill="black" stroke-linecap="square"
                stroke-linejoin="butt" stroke-width="0.3125"
                stroke-miterlimit="10.0" stroke-dashoffset="0.0" stroke="black"/>
        </g>
        <g latexdraw:type="dot" id="id388" latexdraw:size="5.0"
            latexdraw:dotShape="*" latexdraw:position="365.0 215.0">
            <path
                d="M 367.3076923076923 215.0 C 367.3076923076923 216.27450326884028 366.2745032688403 217.3076923076923 365.0 217.3076923076923 C 363.7254967311597 217.3076923076923 362.6923076923077 216.27450326884028 362.6923076923077 215.0 C 362.6923076923077 213.7254967311597 363.7254967311597 212.69230769230768 365.0 212.69230769230768 C 366.2745032688403 212.69230769230768 367.3076923076923 213.7254967311597 367.3076923076923 215.0 z "
                fill="black" stroke-linecap="square"
                stroke-linejoin="butt" stroke-width="0.3125"
                stroke-miterlimit="10.0" stroke-dashoffset="0.0" stroke="black"/>
        </g>
        <g latexdraw:type="dot" id="id486" latexdraw:size="5.0"
            latexdraw:dotShape="*" latexdraw:position="310.0 310.0">
            <path
                d="M 312.3076923076923 310.0 C 312.3076923076923 311.2745032688403 311.2745032688403 312.3076923076923 310.0 312.3076923076923 C 308.7254967311597 312.3076923076923 307.6923076923077 311.2745032688403 307.6923076923077 310.0 C 307.6923076923077 308.7254967311597 308.7254967311597 307.6923076923077 310.0 307.6923076923077 C 311.2745032688403 307.6923076923077 312.3076923076923 308.7254967311597 312.3076923076923 310.0 z "
                fill="black" stroke-linecap="square"
                stroke-linejoin="butt" stroke-width="0.3125"
                stroke-miterlimit="10.0" stroke-dashoffset="0.0" stroke="black"/>
        </g>
        <g latexdraw:type="dot" id="id487" latexdraw:size="5.0"
            latexdraw:dotShape="*" latexdraw:position="330.0 330.0">
            <path
                d="M 332.3076923076923 330.0 C 332.3076923076923 331.2745032688403 331.2745032688403 332.3076923076923 330.0 332.3076923076923 C 328.7254967311597 332.3076923076923 327.6923076923077 331.2745032688403 327.6923076923077 330.0 C 327.6923076923077 328.7254967311597 328.7254967311597 327.6923076923077 330.0 327.6923076923077 C 331.2745032688403 327.6923076923077 332.3076923076923 328.7254967311597 332.3076923076923 330.0 z "
                fill="black" stroke-linecap="square"
                stroke-linejoin="butt" stroke-width="0.3125"
                stroke-miterlimit="10.0" stroke-dashoffset="0.0" stroke="black"/>
        </g>
        <g latexdraw:type="dot" id="id490" latexdraw:size="5.0"
            latexdraw:dotShape="*" latexdraw:position="345.0 305.0">
            <path
                d="M 347.3076923076923 305.0 C 347.3076923076923 306.2745032688403 346.2745032688403 307.3076923076923 345.0 307.3076923076923 C 343.7254967311597 307.3076923076923 342.6923076923077 306.2745032688403 342.6923076923077 305.0 C 342.6923076923077 303.7254967311597 343.7254967311597 302.6923076923077 345.0 302.6923076923077 C 346.2745032688403 302.6923076923077 347.3076923076923 303.7254967311597 347.3076923076923 305.0 z "
                fill="black" stroke-linecap="square"
                stroke-linejoin="butt" stroke-width="0.3125"
                stroke-miterlimit="10.0" stroke-dashoffset="0.0" stroke="black"/>
        </g>
        <g latexdraw:type="dot" id="id492" latexdraw:size="5.0"
            latexdraw:dotShape="*" latexdraw:position="355.0 305.0">
            <path
                d="M 357.3076923076923 305.0 C 357.3076923076923 306.2745032688403 356.2745032688403 307.3076923076923 355.0 307.3076923076923 C 353.7254967311597 307.3076923076923 352.6923076923077 306.2745032688403 352.6923076923077 305.0 C 352.6923076923077 303.7254967311597 353.7254967311597 302.6923076923077 355.0 302.6923076923077 C 356.2745032688403 302.6923076923077 357.3076923076923 303.7254967311597 357.3076923076923 305.0 z "
                fill="black" stroke-linecap="square"
                stroke-linejoin="butt" stroke-width="0.3125"
                stroke-miterlimit="10.0" stroke-dashoffset="0.0" stroke="black"/>
        </g>
        <g latexdraw:type="dot" id="id493" latexdraw:size="5.0"
            latexdraw:dotShape="*" latexdraw:position="365.0 305.0">
            <path
                d="M 367.3076923076923 305.0 C 367.3076923076923 306.2745032688403 366.2745032688403 307.3076923076923 365.0 307.3076923076923 C 363.7254967311597 307.3076923076923 362.6923076923077 306.2745032688403 362.6923076923077 305.0 C 362.6923076923077 303.7254967311597 363.7254967311597 302.6923076923077 365.0 302.6923076923077 C 366.2745032688403 302.6923076923077 367.3076923076923 303.7254967311597 367.3076923076923 305.0 z "
                fill="black" stroke-linecap="square"
                stroke-linejoin="butt" stroke-width="0.3125"
                stroke-miterlimit="10.0" stroke-dashoffset="0.0" stroke="black"/>
        </g>
        <g latexdraw:type="dot" id="id494" latexdraw:size="5.0"
            latexdraw:dotShape="*" latexdraw:position="375.0 305.0">
            <path
                d="M 377.3076923076923 305.0 C 377.3076923076923 306.2745032688403 376.2745032688403 307.3076923076923 375.0 307.3076923076923 C 373.7254967311597 307.3076923076923 372.6923076923077 306.2745032688403 372.6923076923077 305.0 C 372.6923076923077 303.7254967311597 373.7254967311597 302.6923076923077 375.0 302.6923076923077 C 376.2745032688403 302.6923076923077 377.3076923076923 303.7254967311597 377.3076923076923 305.0 z "
                fill="black" stroke-linecap="square"
                stroke-linejoin="butt" stroke-width="0.3125"
                stroke-miterlimit="10.0" stroke-dashoffset="0.0" stroke="black"/>
        </g>
        <g latexdraw:type="dot" id="id495" latexdraw:size="5.0"
            latexdraw:dotShape="*" latexdraw:position="345.0 315.0">
            <path
                d="M 347.3076923076923 315.0 C 347.3076923076923 316.2745032688403 346.2745032688403 317.3076923076923 345.0 317.3076923076923 C 343.7254967311597 317.3076923076923 342.6923076923077 316.2745032688403 342.6923076923077 315.0 C 342.6923076923077 313.7254967311597 343.7254967311597 312.6923076923077 345.0 312.6923076923077 C 346.2745032688403 312.6923076923077 347.3076923076923 313.7254967311597 347.3076923076923 315.0 z "
                fill="black" stroke-linecap="square"
                stroke-linejoin="butt" stroke-width="0.3125"
                stroke-miterlimit="10.0" stroke-dashoffset="0.0" stroke="black"/>
        </g>
        <g latexdraw:type="dot" id="id496" latexdraw:size="5.0"
            latexdraw:dotShape="*" latexdraw:position="355.0 315.0">
            <path
                d="M 357.3076923076923 315.0 C 357.3076923076923 316.2745032688403 356.2745032688403 317.3076923076923 355.0 317.3076923076923 C 353.7254967311597 317.3076923076923 352.6923076923077 316.2745032688403 352.6923076923077 315.0 C 352.6923076923077 313.7254967311597 353.7254967311597 312.6923076923077 355.0 312.6923076923077 C 356.2745032688403 312.6923076923077 357.3076923076923 313.7254967311597 357.3076923076923 315.0 z "
                fill="black" stroke-linecap="square"
                stroke-linejoin="butt" stroke-width="0.3125"
                stroke-miterlimit="10.0" stroke-dashoffset="0.0" stroke="black"/>
        </g>
        <g latexdraw:type="dot" id="id497" latexdraw:size="5.0"
            latexdraw:dotShape="*" latexdraw:position="365.0 315.0">
            <path
                d="M 367.3076923076923 315.0 C 367.3076923076923 316.2745032688403 366.2745032688403 317.3076923076923 365.0 317.3076923076923 C 363.7254967311597 317.3076923076923 362.6923076923077 316.2745032688403 362.6923076923077 315.0 C 362.6923076923077 313.7254967311597 363.7254967311597 312.6923076923077 365.0 312.6923076923077 C 366.2745032688403 312.6923076923077 367.3076923076923 313.7254967311597 367.3076923076923 315.0 z "
                fill="black" stroke-linecap="square"
                stroke-linejoin="butt" stroke-width="0.3125"
                stroke-miterlimit="10.0" stroke-dashoffset="0.0" stroke="black"/>
        </g>
        <g latexdraw:type="dot" id="id498" latexdraw:size="5.0"
            latexdraw:dotShape="*" latexdraw:position="375.0 315.0">
            <path
                d="M 377.3076923076923 315.0 C 377.3076923076923 316.2745032688403 376.2745032688403 317.3076923076923 375.0 317.3076923076923 C 373.7254967311597 317.3076923076923 372.6923076923077 316.2745032688403 372.6923076923077 315.0 C 372.6923076923077 313.7254967311597 373.7254967311597 312.6923076923077 375.0 312.6923076923077 C 376.2745032688403 312.6923076923077 377.3076923076923 313.7254967311597 377.3076923076923 315.0 z "
                fill="black" stroke-linecap="square"
                stroke-linejoin="butt" stroke-width="0.3125"
                stroke-miterlimit="10.0" stroke-dashoffset="0.0" stroke="black"/>
        </g>
        <g latexdraw:type="dot" id="id499" latexdraw:size="5.0"
            latexdraw:dotShape="*" latexdraw:position="345.0 325.0">
            <path
                d="M 347.3076923076923 325.0 C 347.3076923076923 326.2745032688403 346.2745032688403 327.3076923076923 345.0 327.3076923076923 C 343.7254967311597 327.3076923076923 342.6923076923077 326.2745032688403 342.6923076923077 325.0 C 342.6923076923077 323.7254967311597 343.7254967311597 322.6923076923077 345.0 322.6923076923077 C 346.2745032688403 322.6923076923077 347.3076923076923 323.7254967311597 347.3076923076923 325.0 z "
                fill="black" stroke-linecap="square"
                stroke-linejoin="butt" stroke-width="0.3125"
                stroke-miterlimit="10.0" stroke-dashoffset="0.0" stroke="black"/>
        </g>
        <g latexdraw:type="dot" id="id500" latexdraw:size="5.0"
            latexdraw:dotShape="*" latexdraw:position="355.0 325.0">
            <path
                d="M 357.3076923076923 325.0 C 357.3076923076923 326.2745032688403 356.2745032688403 327.3076923076923 355.0 327.3076923076923 C 353.7254967311597 327.3076923076923 352.6923076923077 326.2745032688403 352.6923076923077 325.0 C 352.6923076923077 323.7254967311597 353.7254967311597 322.6923076923077 355.0 322.6923076923077 C 356.2745032688403 322.6923076923077 357.3076923076923 323.7254967311597 357.3076923076923 325.0 z "
                fill="black" stroke-linecap="square"
                stroke-linejoin="butt" stroke-width="0.3125"
                stroke-miterlimit="10.0" stroke-dashoffset="0.0" stroke="black"/>
        </g>
        <g latexdraw:type="dot" id="id501" latexdraw:size="5.0"
            latexdraw:dotShape="*" latexdraw:position="365.0 325.0">
            <path
                d="M 367.3076923076923 325.0 C 367.3076923076923 326.2745032688403 366.2745032688403 327.3076923076923 365.0 327.3076923076923 C 363.7254967311597 327.3076923076923 362.6923076923077 326.2745032688403 362.6923076923077 325.0 C 362.6923076923077 323.7254967311597 363.7254967311597 322.6923076923077 365.0 322.6923076923077 C 366.2745032688403 322.6923076923077 367.3076923076923 323.7254967311597 367.3076923076923 325.0 z "
                fill="black" stroke-linecap="square"
                stroke-linejoin="butt" stroke-width="0.3125"
                stroke-miterlimit="10.0" stroke-dashoffset="0.0" stroke="black"/>
        </g>
        <g latexdraw:type="dot" id="id502" latexdraw:size="5.0"
            latexdraw:dotShape="*" latexdraw:position="375.0 325.0">
            <path
                d="M 377.3076923076923 325.0 C 377.3076923076923 326.2745032688403 376.2745032688403 327.3076923076923 375.0 327.3076923076923 C 373.7254967311597 327.3076923076923 372.6923076923077 326.2745032688403 372.6923076923077 325.0 C 372.6923076923077 323.7254967311597 373.7254967311597 322.6923076923077 375.0 322.6923076923077 C 376.2745032688403 322.6923076923077 377.3076923076923 323.7254967311597 377.3076923076923 325.0 z "
                fill="black" stroke-linecap="square"
                stroke-linejoin="butt" stroke-width="0.3125"
                stroke-miterlimit="10.0" stroke-dashoffset="0.0" stroke="black"/>
        </g>
        <g latexdraw:type="dot" id="id503" latexdraw:size="5.0"
            latexdraw:dotShape="*" latexdraw:position="345.0 335.0">
            <path
                d="M 347.3076923076923 335.0 C 347.3076923076923 336.2745032688403 346.2745032688403 337.3076923076923 345.0 337.3076923076923 C 343.7254967311597 337.3076923076923 342.6923076923077 336.2745032688403 342.6923076923077 335.0 C 342.6923076923077 333.7254967311597 343.7254967311597 332.6923076923077 345.0 332.6923076923077 C 346.2745032688403 332.6923076923077 347.3076923076923 333.7254967311597 347.3076923076923 335.0 z "
                fill="black" stroke-linecap="square"
                stroke-linejoin="butt" stroke-width="0.3125"
                stroke-miterlimit="10.0" stroke-dashoffset="0.0" stroke="black"/>
        </g>
        <g latexdraw:type="dot" id="id504" latexdraw:size="5.0"
            latexdraw:dotShape="*" latexdraw:position="355.0 335.0">
            <path
                d="M 357.3076923076923 335.0 C 357.3076923076923 336.2745032688403 356.2745032688403 337.3076923076923 355.0 337.3076923076923 C 353.7254967311597 337.3076923076923 352.6923076923077 336.2745032688403 352.6923076923077 335.0 C 352.6923076923077 333.7254967311597 353.7254967311597 332.6923076923077 355.0 332.6923076923077 C 356.2745032688403 332.6923076923077 357.3076923076923 333.7254967311597 357.3076923076923 335.0 z "
                fill="black" stroke-linecap="square"
                stroke-linejoin="butt" stroke-width="0.3125"
                stroke-miterlimit="10.0" stroke-dashoffset="0.0" stroke="black"/>
        </g>
        <g latexdraw:type="dot" id="id505" latexdraw:size="5.0"
            latexdraw:dotShape="*" latexdraw:position="365.0 335.0">
            <path
                d="M 367.3076923076923 335.0 C 367.3076923076923 336.2745032688403 366.2745032688403 337.3076923076923 365.0 337.3076923076923 C 363.7254967311597 337.3076923076923 362.6923076923077 336.2745032688403 362.6923076923077 335.0 C 362.6923076923077 333.7254967311597 363.7254967311597 332.6923076923077 365.0 332.6923076923077 C 366.2745032688403 332.6923076923077 367.3076923076923 333.7254967311597 367.3076923076923 335.0 z "
                fill="black" stroke-linecap="square"
                stroke-linejoin="butt" stroke-width="0.3125"
                stroke-miterlimit="10.0" stroke-dashoffset="0.0" stroke="black"/>
        </g>
        <g latexdraw:type="dot" id="id506" latexdraw:size="5.0"
            latexdraw:dotShape="*" latexdraw:position="375.0 335.0">
            <path
                d="M 377.3076923076923 335.0 C 377.3076923076923 336.2745032688403 376.2745032688403 337.3076923076923 375.0 337.3076923076923 C 373.7254967311597 337.3076923076923 372.6923076923077 336.2745032688403 372.6923076923077 335.0 C 372.6923076923077 333.7254967311597 373.7254967311597 332.6923076923077 375.0 332.6923076923077 C 376.2745032688403 332.6923076923077 377.3076923076923 333.7254967311597 377.3076923076923 335.0 z "
                fill="black" stroke-linecap="square"
                stroke-linejoin="butt" stroke-width="0.3125"
                stroke-miterlimit="10.0" stroke-dashoffset="0.0" stroke="black"/>
        </g>
        <g latexdraw:type="joinedLines" id="id537">
            <polyline points="280.0,160.0 280.0,190.0 "
                stroke-width="2.5" stroke="black"
                latexdraw:rotationAngle="0.0" marker-end="url(#arrow1-537)"/>
        </g>
        <g latexdraw:type="joinedLines" id="id538">
            <polyline points="320.0,160.0 320.0,190.0 "
                stroke-width="2.5" stroke="black"
                latexdraw:rotationAngle="0.0" marker-end="url(#arrow1-538)"/>
        </g>
        <g latexdraw:type="joinedLines" id="id539">
            <polyline points="360.0,160.0 360.0,190.0 "
                stroke-width="2.5" stroke="black"
                latexdraw:rotationAngle="0.0" marker-end="url(#arrow1-539)"/>
        </g>
    </g>
    <defs>
        <marker overflow="visible" orient="auto" id="arrow1-537">
            <path
                d="M 0.0 0.0 L -7.058333333333333 3.5291666666666663 L -5.293749999999999 0.0 L -7.058333333333333 -3.5291666666666663 z "
                latexdraw:arrSizeNum="6.0" fill="black"/>
        </marker>
        <marker overflow="visible" orient="auto" id="arrow1-538">
            <path
                d="M 0.0 0.0 L -7.058333333333333 3.5291666666666663 L -5.293749999999999 0.0 L -7.058333333333333 -3.5291666666666663 z "
                latexdraw:arrSizeNum="6.0" fill="black"/>
        </marker>
        <marker overflow="visible" orient="auto" id="arrow1-539">
            <path
                d="M 0.0 0.0 L -7.058333333333333 3.5291666666666663 L -5.293749999999999 0.0 L -7.058333333333333 -3.5291666666666663 z "
                latexdraw:arrSizeNum="6.0" fill="black"/>
        </marker>
    </defs>
    <metadata>
        <latexdraw:metadata>
            <latexdraw:latexIncludes><![CDATA[]]></latexdraw:latexIncludes>
            <latexdraw:displayXScale>true</latexdraw:displayXScale>
            <latexdraw:displayYScale>true</latexdraw:displayYScale>
            <latexdraw:unit>CM</latexdraw:unit>
            <latexdraw:zoom>1.0</latexdraw:zoom>
            <latexdraw:magneticGridStyle>CUSTOMISED</latexdraw:magneticGridStyle>
            <latexdraw:gridGap>10</latexdraw:gridGap>
            <latexdraw:magneticGrid>true</latexdraw:magneticGrid>
            <latexdraw:version>3.1.0</latexdraw:version>
            <latexdraw:size>
                <latexdraw:width>1860</latexdraw:width>
                <latexdraw:height>1117</latexdraw:height>
            </latexdraw:size>
            <latexdraw:position>
                <latexdraw:x>0.0</latexdraw:x>
                <latexdraw:y>22.0</latexdraw:y>
            </latexdraw:position>
        </latexdraw:metadata>
    </metadata>
</svg>
